<svg width="210" height="34" viewBox="0 0 210 34" fill="none" xmlns="http://www.w3.org/2000/svg">
<path d="M20.5273 2L19.7266 14.2852C19.2448 14.207 18.2227 14.0964 16.6602 13.9531C15.7227 13.9141 14.6159 13.888 13.3398 13.875L13.0078 20.1641C14.349 20.1901 16.4193 20.0924 19.2188 19.8711C19.0885 20.457 18.8867 21.4206 18.6133 22.7617C18.4701 23.556 18.3138 24.513 18.1445 25.6328C17.7799 25.5547 16.9401 25.4375 15.625 25.2812C14.6484 25.2031 13.6849 25.1771 12.7344 25.2031L12.5781 32H1.62109L1.01562 16.6875C0.911458 13.1719 0.61849 8.27604 0.136719 2H20.5273ZM42.2461 26.082C42.1159 26.6029 41.875 27.5859 41.5234 29.0312C41.3411 29.8776 41.1849 30.8672 41.0547 32H23.3789C23.3138 28.9401 23.151 23.901 22.8906 16.8828C22.7214 13.2891 22.4154 8.32812 21.9727 2H35.5273L34.4141 26.8828C35.6771 26.8828 37.5716 26.7461 40.0977 26.4727C40.6185 26.4206 41.3346 26.2904 42.2461 26.082ZM56.7383 2L55.9766 17.957C55.8333 21.3945 55.6641 26.0755 55.4688 32H44.5117L43.1836 2H56.7383ZM84.5703 13.2305C84.5703 15.6263 83.8997 17.7487 82.5586 19.5977C81.3737 21.2122 79.8893 22.3711 78.1055 23.0742C78.4831 23.6602 79.4141 24.8906 80.8984 26.7656C81.6406 27.625 82.7734 28.7578 84.2969 30.1641C83.6849 30.3854 82.3372 30.9453 80.2539 31.8438C78.7956 32.5078 77.4219 33.1589 76.1328 33.7969C75.7552 33.3281 74.9154 32.1172 73.6133 30.1641C73.0143 29.1745 72.1354 27.5078 70.9766 25.1641H70.9375L70.7422 32H59.7461C59.6029 29.1615 59.401 24.4805 59.1406 17.957C59.0234 14.1159 58.7565 8.79688 58.3398 2C61.9206 1.6224 65.1888 1.43359 68.1445 1.43359C79.0951 1.43359 84.5703 5.36589 84.5703 13.2305ZM75.7031 17.4492C75.7031 16.2122 75.1823 15.3268 74.1406 14.793C73.3724 14.4023 72.4089 14.2331 71.25 14.2852L71.1328 20.9648C72.2135 20.9648 73.1771 20.724 74.0234 20.2422C75.1432 19.6172 75.7031 18.6862 75.7031 17.4492ZM109.57 2L109.004 14.2852C108.496 14.207 107.682 14.1094 106.562 13.9922C105.872 13.9531 104.753 13.9141 103.203 13.875C103.125 14.6432 102.988 16.4987 102.793 19.4414C102.65 22.293 102.415 26.4792 102.09 32H92.6367C92.5326 29.3698 92.3372 25.2357 92.0508 19.5977C91.9206 17.6445 91.7839 15.737 91.6406 13.875L88.5547 13.9922L85.7617 14.2852L85.2734 2H109.57ZM134.727 2L123.965 26.043C125.137 26.1211 126.992 26.0299 129.531 25.7695C130.117 25.7044 130.924 25.5286 131.953 25.2422C131.758 25.8281 131.426 26.8438 130.957 28.2891C130.697 29.1094 130.352 30.3464 129.922 32H112.285L117.559 13.6406C117.09 13.6667 116.198 13.7188 114.883 13.7969C113.919 13.862 112.598 14.0247 110.918 14.2852L110.488 2H134.727ZM162.109 16.3555C162.109 20.9518 160.924 24.8385 158.555 28.0156C156.068 31.3359 152.884 32.9961 149.004 32.9961C145.007 32.9961 141.771 31.3229 139.297 27.9766C136.966 24.8255 135.801 20.9518 135.801 16.3555C135.801 11.4466 137.07 7.59245 139.609 4.79297C142.005 2.16276 145.137 0.847656 149.004 0.847656C152.806 0.847656 155.905 2.16927 158.301 4.8125C160.84 7.625 162.109 11.4727 162.109 16.3555ZM152.715 19.793C152.715 16.1732 151.491 14.3633 149.043 14.3633C146.66 14.3633 145.469 16.1862 145.469 19.832C145.469 21.2904 145.781 22.651 146.406 23.9141C147.109 25.3333 147.975 26.043 149.004 26.043C150.007 26.043 150.892 25.3203 151.66 23.875C152.363 22.5599 152.715 21.1992 152.715 19.793ZM187.617 2C187.435 4.63021 187.181 9.22005 186.855 15.7695C186.66 20.5872 186.497 26.1276 186.367 32.3906C184.661 31.0495 182.064 29.0508 178.574 26.3945C177.064 25.3398 174.811 23.7578 171.816 21.6484L171.621 32H165.332C165.228 29.3568 164.987 24.3698 164.609 17.0391C164.284 11.1016 163.952 6.08854 163.613 2H173.418L180.684 8.875C180.684 7.29948 180.658 6.0625 180.605 5.16406C180.566 4.36979 180.488 3.3151 180.371 2H187.617ZM209.766 2L208.926 14.3633C208.444 14.2852 207.402 14.1484 205.801 13.9531C204.707 13.849 203.509 13.7839 202.207 13.7578L201.914 17.4883C203.346 17.5273 205.684 17.4948 208.926 17.3906C208.783 17.8724 208.555 18.7708 208.242 20.0859C208.06 20.8802 207.897 21.7982 207.754 22.8398C207.376 22.7487 206.432 22.6315 204.922 22.4883C204.219 22.4492 203.177 22.4362 201.797 22.4492L201.602 26.8047C202.578 26.7917 204.375 26.707 206.992 26.5508C207.487 26.5117 208.301 26.3555 209.434 26.082C209.329 26.4857 209.089 27.4557 208.711 28.9922C208.529 29.7865 208.307 30.7891 208.047 32H190.566L190 16.6875C189.896 13.1849 189.642 8.28906 189.238 2H209.766Z" fill="url(#paint0_linear_58_430)"/>
<defs>
<linearGradient id="paint0_linear_58_430" x1="-35" y1="20" x2="245" y2="20" gradientUnits="userSpaceOnUse">
<stop stop-color="#CB4040"/>
<stop offset="1" stop-color="#9037A2"/>
</linearGradient>
</defs>
</svg>
