<svg width="201" height="54" viewBox="0 0 201 54" fill="none" xmlns="http://www.w3.org/2000/svg">
<g clip-path="url(#clip0_9_46)">
<mask id="mask0_9_46" style="mask-type:luminance" maskUnits="userSpaceOnUse" x="0" y="0" width="201" height="54">
<path d="M201 0H0V54H201V0Z" fill="white"/>
</mask>
<g mask="url(#mask0_9_46)">
<path d="M23.9227 54C10.6939 54 -0.0707397 41.8877 -0.0707397 27C-0.0707397 12.1123 10.6939 0 23.9227 0H177.098C190.328 0 201.091 12.1123 201.091 27C201.091 41.8877 190.327 54 177.098 54H24.0083" fill="#E0E0E0"/>
</g>
<path d="M177.178 53.3721H23.9283C10.9861 53.3721 0.495056 41.5633 0.495056 27C0.495056 12.4368 10.9861 0.62793 23.9283 0.62793H177.094C190.036 0.62793 200.527 12.4368 200.527 27C200.527 41.5633 190.036 53.3721 177.094 53.3721" fill="#F5F5F5"/>
<path d="M177.178 53.3721H23.9283C10.9861 53.3721 0.495056 41.5633 0.495056 27C0.495056 12.4368 10.9861 0.62793 23.9283 0.62793H177.094C190.036 0.62793 200.527 12.4368 200.527 27C200.527 41.5633 190.036 53.3721 177.094 53.3721" fill="#F5F5F5"/>
<mask id="mask1_9_46" style="mask-type:luminance" maskUnits="userSpaceOnUse" x="9" y="9" width="32" height="36">
<path d="M40.2 9.4187H9.11945V44.3722H40.2V9.4187Z" fill="white"/>
</mask>
<g mask="url(#mask1_9_46)">
<path d="M40.1963 26.9142C40.1963 27.4856 40.1702 28.057 40.1218 28.6263C40.0716 29.1956 39.9971 29.7608 39.8985 30.3217C39.7999 30.8826 39.6752 31.4373 39.5281 31.9835C39.3811 32.5298 39.2099 33.0698 39.0145 33.5973C38.8191 34.1268 38.6032 34.6417 38.3612 35.1461C38.1211 35.6505 37.8606 36.1403 37.5777 36.6175C37.2948 37.0926 36.9933 37.551 36.6695 37.9926C36.3475 38.4342 36.0051 38.8591 35.6459 39.2631C35.2867 39.667 34.9107 40.0521 34.5162 40.4142C34.1235 40.7763 33.7159 41.1175 33.2934 41.4356C32.871 41.7538 32.4354 42.0468 31.9851 42.3168C31.5365 42.5868 31.0768 42.8317 30.6078 43.0494C30.1388 43.2691 29.6605 43.4617 29.1729 43.627C28.6853 43.7924 28.194 43.9326 27.6952 44.0435C27.1964 44.1545 26.6939 44.2382 26.1877 44.2947C25.6815 44.3512 25.1753 44.3784 24.6653 44.3784C24.1554 44.3784 23.6491 44.3491 23.1429 44.2947C22.6367 44.2382 22.1342 44.1545 21.6354 44.0435C21.1366 43.9326 20.6434 43.7924 20.1577 43.627C19.672 43.4617 19.1936 43.2691 18.7228 43.0494C18.2538 42.8317 17.7941 42.5868 17.3456 42.3168C16.897 42.0468 16.4615 41.7538 16.0391 41.4356C15.6166 41.1175 15.209 40.7784 14.8145 40.4142C14.4218 40.0521 14.0458 39.667 13.6866 39.2631C13.3274 38.8591 12.985 38.4363 12.663 37.9926C12.341 37.551 12.0377 37.0926 11.7548 36.6175C11.4719 36.1403 11.2113 35.6526 10.9713 35.1461C10.7312 34.6417 10.5153 34.1247 10.3199 33.5973C10.1245 33.0698 9.95509 32.5319 9.8062 31.9835C9.65731 31.4373 9.53448 30.8826 9.43584 30.3217C9.33534 29.7608 9.2609 29.1956 9.21251 28.6263C9.16412 28.057 9.13806 27.4877 9.13806 26.9142C9.13806 26.3408 9.16412 25.7715 9.21251 25.2021C9.2609 24.6328 9.3372 24.0677 9.43584 23.5068C9.53448 22.9459 9.65731 22.3912 9.8062 21.8449C9.95323 21.2987 10.1245 20.7608 10.3199 20.2312C10.5153 19.7038 10.7312 19.1868 10.9713 18.6824C11.2113 18.178 11.4719 17.6882 11.7548 17.2131C12.0377 16.738 12.341 16.2796 12.663 15.8359C12.985 15.3942 13.3274 14.9694 13.6866 14.5654C14.0458 14.1614 14.4218 13.7784 14.8145 13.4163C15.2071 13.0542 15.6166 12.7131 16.0391 12.3949C16.4615 12.0768 16.897 11.7838 17.3456 11.5138C17.7941 11.2438 18.2538 11.001 18.7228 10.7812C19.1936 10.5615 19.6701 10.371 20.1577 10.2035C20.6434 10.0361 21.1385 9.89796 21.6354 9.78703C22.1342 9.67401 22.6367 9.59029 23.1429 9.53587C23.6491 9.47936 24.1572 9.45215 24.6653 9.45215C25.1734 9.45215 25.6815 9.47936 26.1877 9.53587C26.6939 9.59238 27.1964 9.6761 27.6952 9.78703C28.194 9.89796 28.6872 10.0361 29.1729 10.2035C29.6587 10.3689 30.1388 10.5615 30.6078 10.7812C31.0787 11.001 31.5365 11.2438 31.9851 11.5138C32.4336 11.7838 32.871 12.0768 33.2934 12.3949C33.7159 12.7131 34.1235 13.0542 34.5162 13.4163C34.9089 13.7784 35.2867 14.1635 35.6459 14.5654C36.0051 14.9694 36.3475 15.3942 36.6695 15.8359C36.9914 16.2775 37.2948 16.738 37.5777 17.2131C37.8606 17.6882 38.1211 18.178 38.3612 18.6824C38.6013 19.1868 38.8191 19.7038 39.0145 20.2312C39.208 20.7608 39.3793 21.2966 39.5281 21.8449C39.677 22.3933 39.7999 22.948 39.8985 23.5068C39.9971 24.0677 40.0716 24.6328 40.1218 25.2021C40.1721 25.7715 40.1963 26.3428 40.1963 26.9142Z" fill="black"/>
</g>
<mask id="mask2_9_46" style="mask-type:luminance" maskUnits="userSpaceOnUse" x="16" y="17" width="18" height="18">
<path d="M33.3139 17.1628H16.0056V34.9535H33.3139V17.1628Z" fill="white"/>
</mask>
<g mask="url(#mask2_9_46)">
<path d="M26.0351 17.3637C28.6518 18.0377 30.4422 20.7398 30.4515 23.76C30.4701 30.8386 33.3437 30.2023 33.3437 33.4423C33.3437 33.4423 33.3437 34.7421 32.1879 34.7421H17.1539C15.9981 34.7421 15.9981 33.4423 15.9981 33.4423C15.9981 30.1918 18.8884 30.8407 18.8884 23.6888C18.8884 19.597 22.2496 16.3863 26.0369 17.3616L26.0351 17.3637Z" fill="white"/>
</g>
<mask id="mask3_9_46" style="mask-type:luminance" maskUnits="userSpaceOnUse" x="22" y="15" width="5" height="5">
<path d="M26.6139 15.0698H22.8917V19.2559H26.6139V15.0698Z" fill="white"/>
</mask>
<g mask="url(#mask3_9_46)">
<path d="M26.4055 17.1608C26.4055 17.2885 26.3943 17.4161 26.372 17.5417C26.3496 17.6673 26.3161 17.7887 26.2733 17.908C26.2305 18.0252 26.1765 18.1382 26.1133 18.245C26.05 18.3517 25.9793 18.4501 25.8974 18.5401C25.8155 18.6301 25.728 18.7117 25.635 18.7829C25.54 18.8541 25.4395 18.9148 25.3353 18.9629C25.2311 19.011 25.1213 19.0487 25.0115 19.0738C24.8998 19.0989 24.7863 19.1115 24.6728 19.1115C24.5592 19.1115 24.4476 19.0989 24.334 19.0738C24.2224 19.0487 24.1144 19.011 24.0102 18.9629C23.9041 18.9148 23.8055 18.8541 23.7106 18.7829C23.6156 18.7117 23.5282 18.6301 23.4481 18.5401C23.3681 18.4501 23.2955 18.3517 23.2323 18.245C23.169 18.1382 23.115 18.0252 23.0722 17.908C23.0294 17.7887 22.9959 17.6673 22.9736 17.5417C22.9512 17.4161 22.9401 17.2885 22.9401 17.1608C22.9401 17.0331 22.9512 16.9054 22.9736 16.7799C22.9959 16.6543 23.0294 16.5329 23.0722 16.4136C23.115 16.2943 23.169 16.1834 23.2323 16.0766C23.2955 15.9699 23.3663 15.8715 23.4481 15.7794C23.5282 15.6894 23.6175 15.6078 23.7106 15.5366C23.8055 15.4654 23.906 15.4048 24.0102 15.3566C24.1144 15.3085 24.2242 15.2708 24.334 15.2457C24.4457 15.2206 24.5592 15.208 24.6728 15.208C24.7863 15.208 24.8998 15.2206 25.0115 15.2457C25.1231 15.2708 25.2311 15.3085 25.3353 15.3566C25.4414 15.4048 25.54 15.4654 25.635 15.5366C25.7299 15.6078 25.8173 15.6873 25.8974 15.7794C25.9774 15.8715 26.05 15.9699 26.1133 16.0766C26.1765 16.1834 26.2305 16.2943 26.2733 16.4136C26.3161 16.5329 26.3496 16.6543 26.372 16.7799C26.3943 16.9054 26.4055 17.031 26.4055 17.1608Z" fill="white"/>
</g>
<mask id="mask4_9_46" style="mask-type:luminance" maskUnits="userSpaceOnUse" x="22" y="35" width="5" height="4">
<path d="M26.9861 35.7908H22.3333V38.721H26.9861V35.7908Z" fill="white"/>
</mask>
<g mask="url(#mask4_9_46)">
<path d="M24.669 38.6016C25.9457 38.6016 26.9823 37.4379 26.9823 36H22.3575C22.3575 37.4358 23.3941 38.6016 24.6708 38.6016H24.669Z" fill="white"/>
</g>
<path d="M54.5306 32.6512H52.4833V19.8838H55.0945L59.7249 28.1094L59.9278 28.0738V19.8838H61.975V32.6512H59.6374L54.726 23.8668L54.5306 23.9024V32.6533V32.6512Z" fill="black"/>
<path d="M72.0101 28.4652H66.4733C66.5348 29.2752 66.7488 29.8884 67.1136 30.2715C67.4783 30.6545 67.9753 30.8471 68.6062 30.8471C69.0994 30.8471 69.4995 30.7445 69.8084 30.5373C70.1155 30.328 70.3631 30.0119 70.5529 29.721H70.7167L72.1553 30.6252C71.8724 31.3054 71.4481 31.858 70.8804 32.2787C70.3147 32.7015 69.5572 32.9108 68.608 32.9108C67.7166 32.9108 66.9461 32.7203 66.2965 32.3394C65.6507 31.9584 65.1501 31.3912 64.7965 30.6378C64.4447 29.8864 64.2698 28.9675 64.2698 27.8854C64.2698 26.8033 64.454 25.8552 64.8244 25.0996C65.1966 24.344 65.6972 23.781 66.3244 23.4084C66.9554 23.0359 67.6644 22.8496 68.4536 22.8496C69.6707 22.8496 70.6031 23.2138 71.2527 23.9401C71.9003 24.6664 72.226 25.7317 72.226 27.1361C72.226 27.6489 72.2111 28.0424 72.1795 28.3229L72.012 28.4652H72.0101ZM70.1528 26.7908C70.1323 26.0519 69.9797 25.5161 69.6949 25.1771C69.4102 24.8401 68.9951 24.6705 68.4498 24.6705C67.3536 24.6705 66.7097 25.378 66.518 26.7908H70.1509H70.1528Z" fill="black"/>
<path d="M77.4613 32.8604H75.2373L73.1603 23.0232H75.2224L76.4768 29.5116H76.6387L78.2616 23.0232H80.119L81.7958 29.5116H81.9615L83.1656 23.0232H85.1775L83.1228 32.8604H80.8913L79.2294 26.1627H79.0637L77.4613 32.8604Z" fill="black"/>
<path d="M92.8694 32.6512H90.6361V19.8838H93.2472L97.8777 28.1094L98.0806 28.0738V19.8838H100.314V32.6512H97.9763L93.0649 23.8668L92.8694 23.9024V32.6533V32.6512Z" fill="black"/>
<path d="M106.768 32.9106C105.923 32.9106 105.181 32.716 104.542 32.3267C103.906 31.9374 103.411 31.366 103.057 30.6125C102.705 29.8611 102.53 28.9506 102.53 27.8874C102.53 26.8241 102.705 25.9095 103.057 25.1539C103.411 24.3983 103.906 23.8269 104.542 23.4355C105.181 23.0462 105.923 22.8516 106.768 22.8516C107.613 22.8516 108.352 23.0462 108.99 23.4355C109.629 23.8248 110.124 24.3983 110.479 25.1539C110.833 25.9095 111.01 26.822 111.01 27.8874C111.01 28.9527 110.833 29.8611 110.479 30.6125C110.124 31.366 109.629 31.9374 108.99 32.3267C108.352 32.716 107.611 32.9106 106.768 32.9106ZM106.768 30.849C108.106 30.849 108.776 29.8632 108.776 27.8874C108.776 26.8618 108.603 26.1104 108.261 25.6332C107.917 25.156 107.42 24.9174 106.768 24.9174C105.428 24.9174 104.76 25.9074 104.76 27.8874C104.76 29.8674 105.428 30.849 106.768 30.849Z" fill="black"/>
<path d="M117.86 30.3489L118.441 32.1447C118.197 32.3623 117.894 32.5319 117.529 32.6533C117.163 32.7747 116.749 32.8354 116.288 32.8354C115.324 32.8354 114.592 32.5507 114.09 31.9835C113.591 31.4121 113.342 30.5854 113.342 29.4991V24.9049H112.039V23.0212H113.342V21.1333L115.575 20.7356V23.0212H117.994V24.9049H115.575V29.3212C115.575 29.8005 115.664 30.15 115.847 30.3698C116.031 30.5896 116.297 30.7005 116.647 30.7005C117.043 30.7005 117.391 30.5833 117.687 30.3489H117.859H117.86Z" fill="black"/>
<path d="M120.788 21.8742C120.397 21.8742 120.079 21.7423 119.833 21.4765C119.589 21.2086 119.468 20.8654 119.468 20.4426C119.468 20.0198 119.589 19.687 119.833 19.417C120.079 19.1491 120.397 19.0151 120.788 19.0151C121.049 19.0151 121.281 19.0779 121.482 19.2035C121.685 19.3249 121.843 19.4944 121.955 19.71C122.068 19.9235 122.126 20.1663 122.126 20.4426C122.126 20.7189 122.068 20.9658 121.955 21.1835C121.843 21.3991 121.685 21.5665 121.482 21.69C121.281 21.8114 121.049 21.8742 120.788 21.8742ZM119.669 32.6512V23.0233H121.903V32.6512H119.669Z" fill="black"/>
<path d="M124.508 32.6512V24.9071H123.392V23.0233H124.594C124.506 22.6236 124.464 22.251 124.464 21.9036C124.464 21.3071 124.586 20.7964 124.83 20.3715C125.078 19.9445 125.431 19.6201 125.895 19.4003C126.358 19.1785 126.911 19.0654 127.549 19.0654C128.487 19.0654 129.189 19.2454 129.654 19.6033L129.154 21.3468L128.994 21.3803C128.673 21.1312 128.264 21.0078 127.765 21.0078C127.38 21.0078 127.09 21.1124 126.896 21.3217C126.704 21.5289 126.61 21.8115 126.61 22.1694C126.61 22.3222 126.619 22.4645 126.636 22.5943C126.652 22.7219 126.686 22.8643 126.73 23.0233H129.161V24.9071H126.742V32.6512H124.508Z" fill="black"/>
<path d="M131.648 21.8742C131.257 21.8742 130.938 21.7423 130.693 21.4765C130.449 21.2086 130.328 20.8654 130.328 20.4426C130.328 20.0198 130.449 19.687 130.693 19.417C130.938 19.1491 131.257 19.0151 131.648 19.0151C131.908 19.0151 132.141 19.0779 132.342 19.2035C132.545 19.3249 132.703 19.4944 132.814 19.71C132.928 19.9235 132.986 20.1663 132.986 20.4426C132.986 20.7189 132.928 20.9658 132.814 21.1835C132.703 21.3991 132.545 21.5665 132.342 21.69C132.141 21.8114 131.908 21.8742 131.648 21.8742ZM130.464 32.6512V23.0233H132.697V32.6512H130.464Z" fill="black"/>
<path d="M138.993 33.0132C138.158 33.0132 137.421 32.8185 136.779 32.4292C136.14 32.0399 135.64 31.4685 135.279 30.7108C134.919 29.9553 134.739 29.049 134.739 27.9899C134.739 26.9308 134.918 26.012 135.279 25.2564C135.64 24.5008 136.137 23.9295 136.771 23.5381C137.408 23.1488 138.134 22.9541 138.954 22.9541C140.771 22.9541 141.934 23.695 142.444 25.179L140.962 26.3741H140.795C140.618 25.9178 140.389 25.5788 140.104 25.359C139.82 25.135 139.436 25.0241 138.952 25.0241C138.327 25.0241 137.84 25.2669 137.491 25.7525C137.142 26.2381 136.969 26.9853 136.969 27.9941C136.969 29.0029 137.145 29.7313 137.499 30.2232C137.853 30.7108 138.349 30.9557 138.992 30.9557C139.459 30.9557 139.857 30.8134 140.183 30.5288C140.508 30.2441 140.741 29.836 140.881 29.3043L141.048 29.2876L142.587 30.2378C142.368 31.0583 141.962 31.726 141.37 32.2429C140.78 32.7599 139.987 33.0194 138.993 33.0194V33.0132Z" fill="black"/>
<path d="M146.166 32.9525C145.613 32.9525 145.133 32.8395 144.727 32.6114C144.322 32.3832 144.009 32.0462 143.789 31.6046C143.57 31.163 143.46 30.6314 143.46 30.0076C143.46 29.4362 143.57 28.9548 143.789 28.5635C144.009 28.1741 144.348 27.8539 144.806 27.6048C145.263 27.3558 145.861 27.1632 146.602 27.0293C147.119 26.9372 147.51 26.8346 147.776 26.7237C148.044 26.6107 148.226 26.483 148.319 26.3448C148.414 26.2046 148.463 26.0267 148.463 25.809C148.463 25.4993 148.366 25.2628 148.172 25.0974C147.964 24.9174 147.608 24.8358 147.1 24.8504C146.71 24.8609 146.322 24.9614 145.967 25.1455C145.483 25.3946 145.068 25.7337 144.722 26.1607H144.564L143.661 24.6223C144.097 24.0802 144.631 23.6532 145.262 23.3497C145.892 23.0441 146.579 22.8914 147.324 22.8914C148.465 22.8914 149.287 23.1655 149.797 23.7118C150.309 24.256 150.566 25.0283 150.566 26.0267V30.24C150.566 30.6732 150.735 30.8888 151.074 30.8888C151.202 30.8888 151.331 30.8616 151.457 30.8093L151.565 30.8448L151.72 32.5402C151.601 32.6281 151.433 32.6993 151.219 32.7537C151.007 32.8081 150.772 32.8374 150.517 32.8374C150 32.8374 149.596 32.7265 149.308 32.5067C149.021 32.2828 148.813 31.9353 148.688 31.4602L148.524 31.4434C148.102 32.4502 147.316 32.9525 146.166 32.9525ZM146.868 31.0918C147.366 31.0918 147.765 30.9034 148.066 30.5246C148.366 30.1479 148.517 29.6204 148.517 28.9465V27.9648L148.37 27.9293C148.237 28.0465 148.064 28.1428 147.854 28.2223C147.644 28.3018 147.342 28.3793 146.946 28.4588C146.477 28.5467 146.14 28.6974 145.933 28.913C145.727 29.1265 145.623 29.4279 145.623 29.8193C145.623 30.2358 145.732 30.5518 145.952 30.7695C146.172 30.9851 146.477 31.0918 146.868 31.0918Z" fill="black"/>
<path d="M158.06 30.3489L158.641 32.1447C158.397 32.3623 158.094 32.5319 157.729 32.6533C157.363 32.7747 156.949 32.8354 156.488 32.8354C155.524 32.8354 154.792 32.5507 154.29 31.9835C153.791 31.4121 153.542 30.5854 153.542 29.4991V24.9049H152.239V23.0212H153.542V21.1333L155.775 20.7356V23.0212H158.194V24.9049H155.775V29.3212C155.775 29.8005 155.864 30.15 156.047 30.3698C156.231 30.5896 156.497 30.7005 156.847 30.7005C157.243 30.7005 157.591 30.5833 157.887 30.3489H158.059H158.06Z" fill="black"/>
<path d="M160.951 21.8742C160.56 21.8742 160.242 21.7423 159.996 21.4765C159.752 21.2086 159.631 20.8654 159.631 20.4426C159.631 20.0198 159.752 19.687 159.996 19.417C160.242 19.1491 160.56 19.0151 160.951 19.0151C161.211 19.0151 161.444 19.0779 161.645 19.2035C161.848 19.3249 162.006 19.4944 162.118 19.71C162.231 19.9235 162.289 20.1663 162.289 20.4426C162.289 20.7189 162.231 20.9658 162.118 21.1835C162.006 21.3991 161.848 21.5665 161.645 21.69C161.444 21.8114 161.211 21.8742 160.951 21.8742ZM159.869 32.6512V23.0233H162.103V32.6512H159.869Z" fill="black"/>
<path d="M168.282 32.9106C167.437 32.9106 166.694 32.716 166.056 32.3267C165.419 31.9374 164.924 31.366 164.571 30.6125C164.219 29.8611 164.044 28.9506 164.044 27.8874C164.044 26.8241 164.219 25.9095 164.571 25.1539C164.924 24.3983 165.419 23.8269 166.056 23.4355C166.694 23.0462 167.437 22.8516 168.282 22.8516C169.127 22.8516 169.866 23.0462 170.504 23.4355C171.142 23.8248 171.637 24.3983 171.993 25.1539C172.346 25.9095 172.523 26.822 172.523 27.8874C172.523 28.9527 172.346 29.8611 171.993 30.6125C171.637 31.366 171.142 31.9374 170.504 32.3267C169.866 32.716 169.125 32.9106 168.282 32.9106ZM168.282 30.849C169.62 30.849 170.29 29.8632 170.29 27.8874C170.29 26.8618 170.117 26.1104 169.774 25.6332C169.43 25.156 168.933 24.9174 168.282 24.9174C166.942 24.9174 166.274 25.9074 166.274 27.8874C166.274 29.8674 166.942 30.849 168.282 30.849Z" fill="black"/>
<path d="M174.572 32.6512V23.0233H176.619V24.4402L176.783 24.4842C177.31 23.3916 178.168 22.8433 179.355 22.8433C180.336 22.8433 181.056 23.1467 181.514 23.7537C181.972 24.3586 182.203 25.2377 182.203 26.3951V32.6533H180.156V26.6526C180.156 26.0079 180.042 25.5433 179.817 25.2607C179.593 24.9761 179.232 24.8337 178.736 24.8337C178.129 24.8337 177.656 25.0598 177.315 25.5098C176.975 25.9619 176.806 26.6693 176.806 27.6342V32.6533H174.572V32.6512Z" fill="black"/>
</g>
<defs>
<clipPath id="clip0_9_46">
<rect width="201" height="54" fill="white"/>
</clipPath>
</defs>
</svg>
