<svg width="14" height="13" viewBox="0 0 14 13" fill="none" xmlns="http://www.w3.org/2000/svg">
<path d="M7 0.541687C6.53587 0.541687 6.09075 0.712892 5.76256 1.01764C5.43437 1.32239 5.25 1.73571 5.25 2.16669V6.50002C5.25 6.931 5.43437 7.34432 5.76256 7.64907C6.09075 7.95382 6.53587 8.12502 7 8.12502C7.46413 8.12502 7.90925 7.95382 8.23744 7.64907C8.56563 7.34432 8.75 6.931 8.75 6.50002V2.16669C8.75 1.73571 8.56563 1.32239 8.23744 1.01764C7.90925 0.712892 7.46413 0.541687 7 0.541687Z" stroke="black" stroke-width="0.5" stroke-linecap="round" stroke-linejoin="round"/>
<path d="M11.0832 5.41669V6.50002C11.0832 7.50563 10.653 8.47006 9.88719 9.18113C9.12142 9.89221 8.0828 10.2917 6.99984 10.2917C5.91687 10.2917 4.87826 9.89221 4.11248 9.18113C3.34671 8.47006 2.9165 7.50563 2.9165 6.50002V5.41669" stroke="black" stroke-width="0.5" stroke-linecap="round" stroke-linejoin="round"/>
<path d="M7 10.2917V12.4584" stroke="black" stroke-width="0.5" stroke-linecap="round" stroke-linejoin="round"/>
<path d="M4.6665 12.4583H9.33317" stroke="black" stroke-width="0.5" stroke-linecap="round" stroke-linejoin="round"/>
</svg>
