<svg width="33" height="33" viewBox="0 0 33 33" fill="none" xmlns="http://www.w3.org/2000/svg">
<path d="M30.25 23.2649V27.3899C30.2515 27.7728 30.1731 28.1519 30.0197 28.5027C29.8663 28.8536 29.6413 29.1686 29.3591 29.4275C29.0769 29.6863 28.7438 29.8834 28.381 30.0061C28.0182 30.1288 27.6339 30.1744 27.2525 30.1399C23.0214 29.6801 18.9571 28.2343 15.3862 25.9186C12.064 23.8076 9.24731 20.9909 7.13622 17.6686C4.81244 14.0815 3.3663 9.99751 2.91497 5.74739C2.88061 5.36716 2.9258 4.98393 3.04766 4.62212C3.16952 4.26031 3.36538 3.92784 3.62277 3.64587C3.88017 3.3639 4.19345 3.13861 4.54268 2.98436C4.89191 2.8301 5.26944 2.75025 5.65122 2.74989H9.77622C10.4435 2.74332 11.0904 2.97962 11.5964 3.41475C12.1023 3.84987 12.4328 4.45413 12.5262 5.11489C12.7003 6.43498 13.0232 7.73114 13.4887 8.97864C13.6737 9.47078 13.7138 10.0056 13.6041 10.5198C13.4944 11.0341 13.2397 11.506 12.87 11.8799L11.1237 13.6261C13.0811 17.0685 15.9313 19.9188 19.3737 21.8761L21.12 20.1299C21.4938 19.7602 21.9658 19.5054 22.48 19.3958C22.9942 19.2861 23.5291 19.3261 24.0212 19.5111C25.2687 19.9766 26.5649 20.2995 27.885 20.4736C28.5529 20.5679 29.1629 20.9043 29.599 21.4189C30.035 21.9336 30.2667 22.5906 30.25 23.2649Z" stroke="white" stroke-width="2" stroke-linecap="round" stroke-linejoin="round"/>
</svg>
