<svg width="76" height="39" viewBox="0 0 76 39" fill="none" xmlns="http://www.w3.org/2000/svg">
<path d="M11.4961 30.3906C10.1159 30.3906 8.76172 30.2083 7.43359 29.8438C6.10547 29.4661 4.89453 28.8997 3.80078 28.1445C2.72005 27.3893 1.85417 26.4453 1.20312 25.3125C0.565104 24.1667 0.246094 22.819 0.246094 21.2695H5.46094C5.46094 22.168 5.61068 22.9362 5.91016 23.5742C6.22266 24.1992 6.65234 24.7135 7.19922 25.1172C7.74609 25.5208 8.38411 25.8138 9.11328 25.9961C9.84245 26.1784 10.6367 26.2695 11.4961 26.2695C12.6159 26.2695 13.5404 26.1133 14.2695 25.8008C14.9987 25.4883 15.5456 25.0586 15.9102 24.5117C16.2878 23.9648 16.4766 23.3333 16.4766 22.6172C16.4766 21.875 16.3203 21.2435 16.0078 20.7227C15.6953 20.1888 15.1094 19.694 14.25 19.2383C13.4036 18.7695 12.1667 18.2878 10.5391 17.793C9.21094 17.3893 7.97396 16.9271 6.82812 16.4062C5.69531 15.8854 4.69922 15.2799 3.83984 14.5898C2.98047 13.8997 2.3099 13.1055 1.82812 12.207C1.35938 11.2956 1.125 10.2409 1.125 9.04297C1.125 7.49349 1.55469 6.1263 2.41406 4.94141C3.28646 3.75651 4.49089 2.83203 6.02734 2.16797C7.5638 1.50391 9.33464 1.17188 11.3398 1.17188C13.4753 1.17188 15.3112 1.5625 16.8477 2.34375C18.3971 3.11198 19.5885 4.15365 20.4219 5.46875C21.2552 6.78385 21.6719 8.25521 21.6719 9.88281H16.457C16.457 8.9974 16.2682 8.20964 15.8906 7.51953C15.526 6.82943 14.9596 6.29557 14.1914 5.91797C13.4362 5.52734 12.4661 5.33203 11.2812 5.33203C10.1745 5.33203 9.25 5.49479 8.50781 5.82031C7.77865 6.14583 7.23177 6.58854 6.86719 7.14844C6.51562 7.70833 6.33984 8.33984 6.33984 9.04297C6.33984 9.73307 6.55469 10.3385 6.98438 10.8594C7.42708 11.3802 8.09115 11.8555 8.97656 12.2852C9.86198 12.7018 10.9622 13.112 12.2773 13.5156C14.3867 14.1276 16.138 14.8503 17.5312 15.6836C18.9245 16.5039 19.9661 17.4805 20.6562 18.6133C21.3464 19.7331 21.6914 21.0547 21.6914 22.5781C21.6914 24.1927 21.2682 25.5859 20.4219 26.7578C19.5885 27.9297 18.4102 28.8281 16.8867 29.4531C15.3633 30.0781 13.5664 30.3906 11.4961 30.3906ZM30.5391 30H25.5195V0H30.5391V30ZM34.5234 19.1602L29.4453 24.3164L28.0391 20.2344L31.8867 15.4102L37.6484 8.86719H43.6641L34.5234 19.1602ZM32.0234 20.1758L35.2461 16.7969L44.4453 30H38.6445L32.0234 20.1758ZM49.4258 0.722656C50.3112 0.722656 51.0078 0.976562 51.5156 1.48438C52.0234 1.97917 52.2773 2.60417 52.2773 3.35938C52.2773 4.11458 52.0234 4.74609 51.5156 5.25391C51.0078 5.7487 50.3112 5.99609 49.4258 5.99609C48.5404 5.99609 47.8438 5.7487 47.3359 5.25391C46.8411 4.74609 46.5938 4.11458 46.5938 3.35938C46.5938 2.60417 46.8411 1.97917 47.3359 1.48438C47.8438 0.976562 48.5404 0.722656 49.4258 0.722656ZM51.9453 30H46.9258V8.86719H51.9453V30ZM67.4922 30.3906C66.1641 30.3906 65.0117 30.1432 64.0352 29.6484C63.0586 29.1406 62.2318 28.431 61.5547 27.5195C60.8906 26.6081 60.3568 25.5404 59.9531 24.3164C59.5495 23.0794 59.2565 21.7318 59.0742 20.2734V18.9062C59.3086 16.849 59.7513 15.0391 60.4023 13.4766C61.0534 11.9141 61.9518 10.6901 63.0977 9.80469C64.2565 8.91927 65.7083 8.47656 67.4531 8.47656C69.237 8.47656 70.7409 8.92578 71.9648 9.82422C73.1888 10.7227 74.1133 11.9792 74.7383 13.5938C75.3763 15.1953 75.6953 17.0703 75.6953 19.2188V19.6289C75.6953 21.6862 75.3763 23.5286 74.7383 25.1562C74.1133 26.7708 73.1888 28.0469 71.9648 28.9844C70.7539 29.9219 69.263 30.3906 67.4922 30.3906ZM57.043 38.125V8.86719H61.6523L62.043 12.9297V38.125H57.043ZM66.125 26.3672C67.2188 26.3672 68.0977 26.0612 68.7617 25.4492C69.4388 24.8372 69.9271 24.0234 70.2266 23.0078C70.5391 21.9792 70.6953 20.8529 70.6953 19.6289V19.2188C70.6953 17.9688 70.5391 16.8424 70.2266 15.8398C69.9141 14.8372 69.4193 14.043 68.7422 13.457C68.0651 12.8581 67.1797 12.5586 66.0859 12.5586C65.2786 12.5586 64.5885 12.6888 64.0156 12.9492C63.4427 13.2096 62.9609 13.5807 62.5703 14.0625C62.1927 14.5312 61.8932 15.0977 61.6719 15.7617C61.4635 16.4128 61.3203 17.1354 61.2422 17.9297V21.25C61.3854 22.2005 61.6328 23.0664 61.9844 23.8477C62.3359 24.6159 62.8438 25.2279 63.5078 25.6836C64.1849 26.1393 65.0573 26.3672 66.125 26.3672Z" fill="white"/>
</svg>
