<svg width="243" height="42" viewBox="0 0 243 42" fill="none" xmlns="http://www.w3.org/2000/svg">
<circle cx="21.5" cy="21.5" r="20.5" fill="#EE1D52"/>
<path d="M26.9766 29H15.2695V26.668L20.7891 20.7852C21.3438 20.168 21.7812 19.6328 22.1016 19.1797C22.4297 18.7188 22.6602 18.3047 22.793 17.9375C22.9336 17.5625 23.0039 17.207 23.0039 16.8711C23.0039 16.1211 22.8125 15.5273 22.4297 15.0898C22.0547 14.6523 21.5156 14.4336 20.8125 14.4336C20.2812 14.4336 19.832 14.5586 19.4648 14.8086C19.0977 15.0586 18.8203 15.3984 18.6328 15.8281C18.4453 16.2578 18.3516 16.75 18.3516 17.3047H14.9297C14.9297 16.2812 15.168 15.3438 15.6445 14.4922C16.1289 13.6406 16.8164 12.9609 17.707 12.4531C18.5977 11.9453 19.6523 11.6914 20.8711 11.6914C22.668 11.6914 24.043 12.125 24.9961 12.9922C25.9492 13.8516 26.4258 15.0312 26.4258 16.5312C26.4258 17.2969 26.2695 18.0312 25.957 18.7344C25.6445 19.4297 25.207 20.1328 24.6445 20.8438C24.082 21.5547 23.418 22.3047 22.6523 23.0938L19.6523 26.2578H26.9766V29Z" fill="white"/>
<circle cx="88.5" cy="21.5" r="20.5" fill="#FBFF00"/>
<path d="M100 14V20H94" stroke="#666666" stroke-width="2" stroke-linecap="round" stroke-linejoin="round"/>
<path d="M78 30V24H84" stroke="#666666" stroke-width="2" stroke-linecap="round" stroke-linejoin="round"/>
<path d="M80.51 19.0001C81.0172 17.5669 81.8791 16.2855 83.0155 15.2755C84.1518 14.2655 85.5255 13.5598 87.0083 13.2243C88.4911 12.8888 90.0348 12.9344 91.4952 13.3568C92.9556 13.7793 94.2853 14.5648 95.36 15.6401L100 20.0001M78 24.0001L82.64 28.3601C83.7147 29.4354 85.0444 30.2209 86.5048 30.6433C87.9652 31.0657 89.5089 31.1113 90.9917 30.7758C92.4745 30.4403 93.8482 29.7346 94.9845 28.7247C96.1209 27.7147 96.9828 26.4333 97.49 25.0001" stroke="#666666" stroke-width="2" stroke-linecap="round" stroke-linejoin="round"/>
<circle cx="155.5" cy="21.5" r="20.5" fill="#00FF4F"/>
<path d="M165 21.5C165.003 22.8199 164.695 24.1219 164.1 25.3C163.394 26.7118 162.31 27.8992 160.967 28.7293C159.625 29.5594 158.078 29.9994 156.5 30C155.18 30.0035 153.878 29.6951 152.7 29.1L147 31L148.9 25.3C148.305 24.1219 147.997 22.8199 148 21.5C148.001 19.9218 148.441 18.3749 149.271 17.0326C150.101 15.6903 151.288 14.6056 152.7 13.9C153.878 13.305 155.18 12.9966 156.5 13H157C159.084 13.115 161.053 13.9948 162.529 15.4709C164.005 16.947 164.885 18.9157 165 21V21.5Z" fill="white" stroke="white" stroke-width="2" stroke-linecap="round" stroke-linejoin="round"/>
<circle cx="222.5" cy="21.5" r="20.5" fill="#FF0004"/>
<path d="M214 16H216H232" stroke="white" stroke-width="2" stroke-linecap="round" stroke-linejoin="round"/>
<path d="M230 16V30C230 30.5304 229.789 31.0391 229.414 31.4142C229.039 31.7893 228.53 32 228 32H218C217.47 32 216.961 31.7893 216.586 31.4142C216.211 31.0391 216 30.5304 216 30V16M219 16V14C219 13.4696 219.211 12.9609 219.586 12.5858C219.961 12.2107 220.47 12 221 12H225C225.53 12 226.039 12.2107 226.414 12.5858C226.789 12.9609 227 13.4696 227 14V16" stroke="white" stroke-width="2" stroke-linecap="round" stroke-linejoin="round"/>
</svg>
