<svg width="23" height="23" viewBox="0 0 23 23" fill="none" xmlns="http://www.w3.org/2000/svg">
<path d="M22.375 10.8959C22.3792 12.4907 22.0065 14.064 21.2875 15.4875C20.4349 17.1934 19.1243 18.6282 17.5023 19.6312C15.8804 20.6343 14.0112 21.166 12.1042 21.1667C10.5093 21.1709 8.93606 20.7982 7.5125 20.0792L0.625 22.375L2.92083 15.4875C2.20179 14.064 1.82918 12.4907 1.83333 10.8959C1.83407 8.98882 2.36574 7.11965 3.36879 5.4977C4.37183 3.87575 5.80664 2.56509 7.5125 1.71253C8.93606 0.993493 10.5093 0.620876 12.1042 0.625034H12.7083C15.2269 0.763983 17.6058 1.82704 19.3894 3.61066C21.173 5.39427 22.2361 7.77311 22.375 10.2917V10.8959Z" fill="#D9D9D9"/>
</svg>
