<svg width="14" height="13" viewBox="0 0 14 13" fill="none" xmlns="http://www.w3.org/2000/svg">
<path d="M7 0.541748C6.53587 0.541748 6.09075 0.712953 5.76256 1.0177C5.43437 1.32245 5.25 1.73577 5.25 2.16675V6.50008C5.25 6.93106 5.43437 7.34438 5.76256 7.64913C6.09075 7.95388 6.53587 8.12508 7 8.12508C7.46413 8.12508 7.90925 7.95388 8.23744 7.64913C8.56563 7.34438 8.75 6.93106 8.75 6.50008V2.16675C8.75 1.73577 8.56563 1.32245 8.23744 1.0177C7.90925 0.712953 7.46413 0.541748 7 0.541748Z" stroke="black" stroke-width="0.5" stroke-linecap="round" stroke-linejoin="round"/>
<path d="M11.0834 5.41675V6.50008C11.0834 7.50569 10.6532 8.47012 9.88743 9.18119C9.12166 9.89227 8.08305 10.2917 7.00008 10.2917C5.91711 10.2917 4.8785 9.89227 4.11273 9.18119C3.34696 8.47012 2.91675 7.50569 2.91675 6.50008V5.41675" stroke="black" stroke-width="0.5" stroke-linecap="round" stroke-linejoin="round"/>
<path d="M7 10.2917V12.4584" stroke="black" stroke-width="0.5" stroke-linecap="round" stroke-linejoin="round"/>
<path d="M4.66675 12.4583H9.33341" stroke="black" stroke-width="0.5" stroke-linecap="round" stroke-linejoin="round"/>
</svg>
